<?xml version="1.0" encoding="UTF-8"?>
<svg version="1.1" xmlns="http://www.w3.org/2000/svg" width="500" height="500">
<path d="M0 0 C17.98220151 7.73917534 33.41237296 17.99368755 48 31 C49.30324219 32.08667969 49.30324219 32.08667969 50.6328125 33.1953125 C72.90862698 52.11928029 88.56203743 84.02219168 91 113 C91.25306483 118.74894405 91.17262577 124.48706759 91.04443359 130.23828125 C91.00042758 132.97342402 91.02200466 135.70226092 91.05078125 138.4375 C91.00882203 156.6089514 87.21257818 173.96133703 83.30737305 191.63349915 C79.70969547 208.15692363 77.37664444 229.25901578 86.40234375 244.34375 C92.27322569 252.03761973 101.82859486 255.79726078 111 258 C124.71701617 259.28784213 134.54513023 256.57898991 145.375 248.1796875 C169.37845327 228.24824862 176.15716697 197.64917514 180 168 C182 169 182 169 183.33203125 172.375 C190.39090994 193.79455296 193.94692836 215.50143411 195 238 C195.03464355 238.71800781 195.06928711 239.43601563 195.10498047 240.17578125 C195.93330522 260.38484716 192.75660373 280.43169352 188 300 C187.71600342 301.17103271 187.71600342 301.17103271 187.42626953 302.36572266 C179.00754778 335.97301958 160.38478949 365.18003499 137.25390625 390.5234375 C135.7257804 392.20252205 134.21314142 393.89580823 132.71484375 395.6015625 C128.09921861 400.84263256 123.39725346 405.57442883 118 410 C117.50322754 410.41975098 117.00645508 410.83950195 116.49462891 411.27197266 C77.11030643 444.52598943 28.28462878 461.55872762 -23.125 461.3125 C-24.32406982 461.30976578 -24.32406982 461.30976578 -25.54736328 461.30697632 C-83.63595306 461.08543491 -134.0481095 439.02858143 -176.40234375 399.7734375 C-178 398 -178 398 -178 396 C-178.99 395.67 -179.98 395.34 -181 395 C-182.4375 393.609375 -182.4375 393.609375 -184 391.75 C-184.61101562 391.02683594 -185.22203125 390.30367188 -185.8515625 389.55859375 C-186.56054688 388.71425781 -187.26953125 387.86992187 -188 387 C-188.85335937 386.02160156 -189.70671875 385.04320312 -190.5859375 384.03515625 C-228.49783368 340.42505235 -245.44883835 284.49998147 -241.65234375 227.18359375 C-238.70011663 189.01833244 -227.22610611 150.87196713 -204 120 C-203.60635254 119.47245117 -203.21270508 118.94490234 -202.80712891 118.40136719 C-201.50335354 116.65805587 -200.19121414 114.92143625 -198.875 113.1875 C-198.46709229 112.64778564 -198.05918457 112.10807129 -197.63891602 111.55200195 C-194.9716865 108.08562675 -192.14212467 105.02471432 -189 102 C-189.79481102 109.10362348 -191.12608922 116.04344224 -192.5390625 123.046875 C-197.1911059 146.72369291 -197.31058294 172.52144251 -183.6875 193.375 C-178.41111269 200.47476089 -171.85282087 205.52452985 -163 207 C-149.47663277 208.16868606 -137.8055717 206.85735524 -127 198 C-120.17275855 191.72595401 -115.66022575 183.37085133 -114.82299805 174.02392578 C-114.49494272 162.8961847 -115.34997133 153.62146608 -119 143 C-119.90349819 140.11248242 -120.76459918 137.21309612 -121.625 134.3125 C-121.83084717 133.64782715 -122.03669434 132.9831543 -122.2487793 132.29833984 C-129.94069685 106.80815378 -127.0358518 79.41311149 -114.95458984 55.76953125 C-110.67057567 47.82821802 -105.63659693 41.0808228 -99 35 C-98.154375 34.113125 -97.30875 33.22625 -96.4375 32.3125 C-93.81176903 29.8214219 -91.02709399 27.97238635 -88 26 C-88.144375 27.20914062 -88.28875 28.41828125 -88.4375 29.6640625 C-91.32855642 54.71474513 -90.09866354 76.64689394 -74.2265625 97.30859375 C-64.89261493 108.60457519 -52.47785418 114.47340356 -38 115.875 C-24.21134724 116.49830183 -12.40192019 113.18664634 -2 104 C9.80530846 92.97576109 15.12784643 77.07309725 16.2734375 61.21484375 C16.93011165 41.77317051 11.63751839 21.95770296 1.78515625 5.1484375 C0 2 0 2 0 0 Z " fill="#F4900C" transform="translate(279,0)"/>
<path d="M0 0 C6.07264258 1.62889707 11.95966186 3.65385119 17.8125 5.9375 C18.44615479 6.17807129 19.07980957 6.41864258 19.73266602 6.66650391 C23.7335441 8.25840444 26.75386204 10.19237541 30 13 C31.3921875 13.928125 31.3921875 13.928125 32.8125 14.875 C54.03723922 29.02482615 67.08758062 49.46052727 72.51586914 74.36694336 C74.25836348 83.36828228 75.17609843 92.4923572 76.17456055 101.59985352 C78.47745654 122.82550675 78.47745654 122.82550675 90.83203125 139.66015625 C98.38185387 145.50572997 106.83005946 145.80365771 116 145 C124.45533319 143.47146151 130.25474987 140.74841757 136.29296875 134.609375 C138 133 138 133 140 133 C140.268125 132.236875 140.53625 131.47375 140.8125 130.6875 C142 128 142 128 143.47338867 126.58569336 C148.38753954 121.48135786 148.62090585 112.63786563 149.1875 105.9375 C149.3102832 104.6390918 149.3102832 104.6390918 149.43554688 103.31445312 C149.63315552 101.21050226 149.81795005 99.10535418 150 97 C167.6920888 113.42948158 171.16278222 149.90254173 172.01083374 172.1953125 C172.43793978 189.18066127 172.43793978 189.18066127 167.20678711 194.75854492 C164.92170396 196.65752196 162.54307736 198.24873902 159.98876953 199.76318359 C157.87705258 201.07646104 156.01027583 202.5346412 154.08984375 204.11328125 C128.03240059 225.46253578 97.93610145 239.57005468 65.125 246.875 C63.84544434 247.16165527 63.84544434 247.16165527 62.54003906 247.45410156 C47.79044887 250.5128235 32.90180851 251.38447125 17.875 251.3125 C17.07562012 251.31067719 16.27624023 251.30885437 15.45263672 251.30697632 C-33.94002453 251.11859991 -80.70877399 235.63540528 -119 204 C-119.60779297 203.49903809 -120.21558594 202.99807617 -120.84179688 202.48193359 C-122.75724827 200.89366463 -124.66231785 199.29399743 -126.5625 197.6875 C-127.14684814 197.19572266 -127.73119629 196.70394531 -128.33325195 196.19726562 C-129.16022583 195.48666992 -129.16022583 195.48666992 -130.00390625 194.76171875 C-130.72815796 194.1423645 -130.72815796 194.1423645 -131.46704102 193.51049805 C-136.84759806 188.208777 -136.84759806 188.208777 -137.40991211 183.7487793 C-137.36616455 182.53617432 -137.32241699 181.32356934 -137.27734375 180.07421875 C-137.25782654 179.41399719 -137.23830933 178.75377563 -137.21820068 178.07354736 C-137.14748984 175.94328168 -137.04450598 173.81622827 -136.9375 171.6875 C-136.87650846 170.22274597 -136.81571783 168.75798355 -136.75512695 167.29321289 C-136.31633103 157.64961544 -135.43634165 148.37720832 -133 139 C-132.69964844 137.73929688 -132.39929688 136.47859375 -132.08984375 135.1796875 C-126.29204982 111.94156607 -115.0626719 92.65693705 -99.75 74.4375 C-99.24227051 73.82874023 -98.73454102 73.21998047 -98.21142578 72.59277344 C-95.7277941 69.69780309 -93.63904319 67.32565145 -90 66 C-89.89042969 67.08796875 -89.78085938 68.1759375 -89.66796875 69.296875 C-87.45957643 91.85347716 -87.45957643 91.85347716 -75 110 C-73.88625 111.051875 -73.88625 111.051875 -72.75 112.125 C-63.76090181 118.25393058 -53.31188252 117.9983013 -42.82421875 116.56640625 C-26.7973202 113.14874974 -13.2674665 103.26889806 -4 90 C10.63837221 67.26505318 8.88022626 42.3970775 3.62255859 16.640625 C2.78713098 13.09710143 1.7218361 9.64698603 0.5793457 6.19140625 C0 4 0 4 0 0 Z " fill="#FECB4C" transform="translate(238,210)"/>
<path d="M0 0 C1.31453981 3.74138254 0.71112735 6.70041167 0.0625 10.5625 C-1.34837824 19.69857163 -1.17864368 28.78000099 -1 38 C-1.66 38 -2.32 38 -3 38 C-3 30.08 -3 22.16 -3 14 C-3.99 14 -4.98 14 -6 14 C-6.33 15.32 -6.66 16.64 -7 18 C-7.99 18 -8.98 18 -10 18 C-10.33 18.99 -10.66 19.98 -11 21 C-12.9375 21.5625 -12.9375 21.5625 -15 22 C-16.17749808 23.17749808 -17.3341596 24.37774564 -18.4375 25.625 C-20 27 -20 27 -23 27 C-23 27.99 -23 28.98 -23 30 C-23.66 30 -24.32 30 -25 30 C-20.47217037 17.56503375 -10.50036838 7.61931493 0 0 Z " fill="#F38F0D" transform="translate(190,26)"/>
<path d="M0 0 C0.9867097 3.11074833 0.96838493 5.16442757 0.22265625 8.328125 C-0.05288086 9.52695313 -0.05288086 9.52695313 -0.33398438 10.75 C-0.53314453 11.575 -0.73230469 12.4 -0.9375 13.25 C-1.13279297 14.09046875 -1.32808594 14.9309375 -1.52929688 15.796875 C-2.01142286 17.86648898 -2.50463863 19.93351395 -3 22 C-4.32 21.34 -5.64 20.68 -7 20 C-6.34 20 -5.68 20 -5 20 C-5 19.34 -5 18.68 -5 18 C-7.31 17.67 -9.62 17.34 -12 17 C-12 17.99 -12 18.98 -12 20 C-12.66 20 -13.32 20 -14 20 C-12.56975694 15.74019498 -10.45598596 12.85361889 -7.5625 9.4375 C-4.95783804 6.34365935 -2.38878658 3.26441896 0 0 Z " fill="#EC921A" transform="translate(89,102)"/>
<path d="M0 0 C18.04100228 8.261959 18.04100228 8.261959 25 13 C24.01 13.33 23.02 13.66 22 14 C20.5459375 13.01 20.5459375 13.01 19.0625 12 C16.30101847 9.85198114 16.30101847 9.85198114 13.8125 9.8125 C10.82761741 11.76811273 10.18191987 14.74972036 9 18 C6.44624385 14.82505993 4.62552847 11.51896339 2.8125 7.875 C2.28269531 6.82054687 1.75289063 5.76609375 1.20703125 4.6796875 C0 2 0 2 0 0 Z " fill="#EC951A" transform="translate(279,0)"/>
<path d="M0 0 C1.31453981 3.74138254 0.71112735 6.70041167 0.0625 10.5625 C-1.34837824 19.69857163 -1.17864368 28.78000099 -1 38 C-1.66 38 -2.32 38 -3 38 C-3.01981934 37.2886792 -3.03963867 36.5773584 -3.06005859 35.84448242 C-3.15524867 32.62511184 -3.26495229 29.4063955 -3.375 26.1875 C-3.4059375 25.06794922 -3.436875 23.94839844 -3.46875 22.79492188 C-3.50742188 21.72177734 -3.54609375 20.64863281 -3.5859375 19.54296875 C-3.6173584 18.55321045 -3.6487793 17.56345215 -3.68115234 16.54370117 C-3.83773433 13.75924906 -3.83773433 13.75924906 -6 11 C-8.58380177 10.74969023 -8.58380177 10.74969023 -11 11 C-9.52202738 7.32943063 -7.52384523 5.58914217 -4.375 3.25 C-3.55773437 2.63640625 -2.74046875 2.0228125 -1.8984375 1.390625 C-0.95871094 0.70226562 -0.95871094 0.70226562 0 0 Z " fill="#EB921F" transform="translate(190,26)"/>
<path d="M0 0 C0.66 0 1.32 0 2 0 C3.82671967 13.0348108 5.57040108 25.81739716 5 39 C5.99 39 6.98 39 8 39 C7.505 37.515 7.505 37.515 7 36 C8.485 35.505 8.485 35.505 10 35 C10.33 35.99 10.66 36.98 11 38 C9.8572081 39.16964602 8.71068285 40.33564556 7.5625 41.5 C6.60537109 42.47453125 6.60537109 42.47453125 5.62890625 43.46875 C4 45 4 45 3 45 C2.98018066 44.20529297 2.96036133 43.41058594 2.93994141 42.59179688 C2.42837773 21.21925123 2.42837773 21.21925123 0 0 Z " fill="#EA9717" transform="translate(406,352)"/>
<path d="M0 0 C0.99 0.33 1.98 0.66 3 1 C3.46393202 3.62894809 3.38847892 5.36444253 1.98046875 7.66796875 C-0.28306781 10.29317231 -1.90758308 11.8277001 -5.40234375 12.37890625 C-7.63274657 12.37538271 -9.78645819 12.26562502 -12 12 C-8 8 -4 4 0 0 Z " fill="#EF9110" transform="translate(283,98)"/>
<path d="M0 0 C6.6 0.66 13.2 1.32 20 2 C19.67 2.66 19.34 3.32 19 4 C16.67711188 4.39310414 14.38154824 4.50749695 12.03125 4.65625 C11.3609375 4.7696875 10.690625 4.883125 10 5 C9.67 5.66 9.34 6.32 9 7 C8.34 6.67 7.68 6.34 7 6 C7 6.66 7 7.32 7 8 C6.01 8 5.02 8 4 8 C0 3.77142857 0 3.77142857 0 0 Z " fill="#EE921B" transform="translate(384,257)"/>
<path d="M0 0 C1.11074104 3.33222313 0.88927847 5.62074182 0 9 C-0.33 9.66 -0.66 10.32 -1 11 C-1.22858114 13.0374763 -1.41024278 15.08040303 -1.5625 17.125 C-1.64628906 18.22070312 -1.73007813 19.31640625 -1.81640625 20.4453125 C-1.87699219 21.28835937 -1.93757812 22.13140625 -2 23 C-2.33 23 -2.66 23 -3 23 C-3.92092281 18.34462644 -4.12205997 13.85314567 -4.0625 9.125 C-4.05798828 8.43664062 -4.05347656 7.74828125 -4.04882812 7.0390625 C-4.03716336 5.35933665 -4.01923271 3.67965625 -4 2 C-2.68 1.34 -1.36 0.68 0 0 Z " fill="#ED931A" transform="translate(157,98)"/>
<path d="M0 0 C2 1 2 1 2.79370117 2.79418945 C3.60239422 5.29721169 4.40552382 7.80097652 5.1875 10.3125 C5.47302734 11.18068359 5.75855469 12.04886719 6.05273438 12.94335938 C6.31763672 13.78318359 6.58253906 14.62300781 6.85546875 15.48828125 C7.09934326 16.25696533 7.34321777 17.02564941 7.59448242 17.81762695 C8.04134232 20.22249185 7.76521047 21.69979236 7 24 C6.71125 23.38125 6.4225 22.7625 6.125 22.125 C5.06279958 19.86674235 5.06279958 19.86674235 3 18 C2.65458149 15.66842508 2.32205743 13.33491639 2 11 C1.649375 10.34 1.29875 9.68 0.9375 9 C-0.45865464 6.02153677 -0.12448052 3.23649341 0 0 Z " fill="#E79729" transform="translate(459,168)"/>
<path d="M0 0 C0 3 0 3 -1.5625 5 C-2.2740625 5.99 -2.2740625 5.99 -3 7 C-2.67 7.99 -2.34 8.98 -2 10 C-3 11 -4 12 -5 13 C-5.7425 13.8353125 -5.7425 13.8353125 -6.5 14.6875 C-8 16 -8 16 -11 16 C-11 16.99 -11 17.98 -11 19 C-11.66 19 -12.32 19 -13 19 C-11.64166972 15.24105631 -9.93202341 12.19654835 -7.625 8.9375 C-7.03976563 8.10089844 -6.45453125 7.26429687 -5.8515625 6.40234375 C-4.04957927 4.06432754 -2.1338219 2.03512089 0 0 Z " fill="#E89221" transform="translate(178,37)"/>
<path d="M0 0 C0.99 0.66 1.98 1.32 3 2 C-6.41002278 13.52164009 -6.41002278 13.52164009 -11 19 C-11.625 17.1875 -11.625 17.1875 -12 15 C-11.34 14.01 -10.68 13.02 -10 12 C-9.34 12.33 -8.68 12.66 -8 13 C-8 11.35 -8 9.7 -8 8 C-6.68 8.33 -5.36 8.66 -4 9 C-3.67 7.02 -3.34 5.04 -3 3 C-2.01 3.33 -1.02 3.66 0 4 C0 2.68 0 1.36 0 0 Z " fill="#E79123" transform="translate(429,370)"/>
<path d="M0 0 C0.66 0 1.32 0 2 0 C-1.39007908 9.17801898 -7.33987147 16.93500044 -14 24 C-14.33 23.01 -14.66 22.02 -15 21 C-14.21625 20.2575 -13.4325 19.515 -12.625 18.75 C-10.43495469 16.45566682 -9.17268614 14.87841142 -8 12 C-7.34 12 -6.68 12 -6 12 C-4.47700477 9.06279492 -3.19899698 6.0831351 -2 3 C-1.34 3 -0.68 3 0 3 C0 2.01 0 1.02 0 0 Z " fill="#EB9715" transform="translate(239,288)"/>
<path d="M0 0 C0.33 0.66 0.66 1.32 1 2 C0.36971413 3.68076231 -0.29788106 5.34795544 -1 7 C-1 7.66 -1 8.32 -1 9 C-1.639375 9.226875 -2.27875 9.45375 -2.9375 9.6875 C-5.27193661 10.85250896 -5.27193661 10.85250896 -5.75 13.625 C-5.8325 14.40875 -5.915 15.1925 -6 16 C-6.66 16 -7.32 16 -8 16 C-8.144375 16.61875 -8.28875 17.2375 -8.4375 17.875 C-9 20 -9 20 -10 22 C-10.66 22 -11.32 22 -12 22 C-10.67219091 17.5739697 -8.92222599 13.84339941 -6.5625 9.875 C-5.96566406 8.86179688 -5.36882812 7.84859375 -4.75390625 6.8046875 C-3.26917682 4.43044311 -1.72385664 2.20358433 0 0 Z " fill="#E49728" transform="translate(73,123)"/>
<path d="M0 0 C0.33 0 0.66 0 1 0 C1 5.94 1 11.88 1 18 C-3.5 15.75 -3.5 15.75 -5 12 C-4.01 12 -3.02 12 -2 12 C-2 9.69 -2 7.38 -2 5 C-1.34 5 -0.68 5 0 5 C0 3.35 0 1.7 0 0 Z " fill="#EF9A1D" transform="translate(101,379)"/>
<path d="M0 0 C-0.99043705 4.83628305 -1.95698846 9.47618873 -4 14 C-5.00496852 10.98509443 -5.10335303 8.95818308 -5.0625 5.8125 C-5.05347656 4.91144531 -5.04445313 4.01039063 -5.03515625 3.08203125 C-5.02355469 2.39496094 -5.01195312 1.70789063 -5 1 C-3 0 -3 0 0 0 Z " fill="#EA901C" transform="translate(465,305)"/>
<path d="M0 0 C0.33 0 0.66 0 1 0 C1.50333542 2.60356241 2.00279378 5.20776651 2.5 7.8125 C2.64308594 8.55048828 2.78617187 9.28847656 2.93359375 10.04882812 C3.50926281 13.07794391 4 15.909196 4 19 C3.34 19 2.68 19 2 19 C1.896875 18.401875 1.79375 17.80375 1.6875 17.1875 C1.19949301 14.91380148 1.19949301 14.91380148 -0.59375 13.75 C-2 12 -2 12 -1.85546875 9.08203125 C-1.63503906 8.00308594 -1.41460937 6.92414063 -1.1875 5.8125 C-0.97480469 4.72582031 -0.76210937 3.63914063 -0.54296875 2.51953125 C-0.36378906 1.68808594 -0.18460937 0.85664063 0 0 Z " fill="#E69321" transform="translate(83,160)"/>
<path d="M0 0 C0.90878906 0.19916016 0.90878906 0.19916016 1.8359375 0.40234375 C7.87728368 1.67567364 13.84737892 2.50255404 20 3 C20 3.33 20 3.66 20 4 C17.89594609 4.16808419 15.79175242 4.33441948 13.6875 4.5 C12.51574219 4.5928125 11.34398437 4.685625 10.13671875 4.78125 C8.094806 4.92364989 6.0468721 5 4 5 C3.67 4.01 3.34 3.02 3 2 C2.01 2.33 1.02 2.66 0 3 C0 2.01 0 1.02 0 0 Z " fill="#E69224" transform="translate(224,113)"/>
<path d="M0 0 C0.66 0.33 1.32 0.66 2 1 C1.81824219 1.58265625 1.63648437 2.1653125 1.44921875 2.765625 C-0.60235511 9.45691206 -2.35228894 16.19880965 -4 23 C-4.97448312 19.91152424 -4.9781109 17.85214832 -4.2578125 14.70703125 C-4.07863281 13.91232422 -3.89945312 13.11761719 -3.71484375 12.29882812 C-3.52019531 11.47833984 -3.32554688 10.65785156 -3.125 9.8125 C-2.84462891 8.56436523 -2.84462891 8.56436523 -2.55859375 7.29101562 C-1.14637897 1.14637897 -1.14637897 1.14637897 0 0 Z " fill="#EB9815" transform="translate(109,329)"/>
<path d="M0 0 C0.33 0 0.66 0 1 0 C1 5.61 1 11.22 1 17 C0.01 16.34 -0.98 15.68 -2 15 C-1.85973717 12.68715544 -1.71264442 10.37472409 -1.5625 8.0625 C-1.48128906 6.77472656 -1.40007812 5.48695313 -1.31640625 4.16015625 C-1 1 -1 1 0 0 Z " fill="#E4952C" transform="translate(358,211)"/>
<path d="M0 0 C0.66 0 1.32 0 2 0 C1.6889315 2.06271639 1.37608484 4.12516466 1.0625 6.1875 C0.88847656 7.33605469 0.71445312 8.48460937 0.53515625 9.66796875 C0.08620687 12.46325212 -0.42082162 15.22933586 -1 18 C-1.33 18 -1.66 18 -2 18 C-2.33 16.02 -2.66 14.04 -3 12 C-3.66 12 -4.32 12 -5 12 C-4.67 11.01 -4.34 10.02 -4 9 C-3.01 9 -2.02 9 -1 9 C-0.67 6.03 -0.34 3.06 0 0 Z " fill="#E69226" transform="translate(365,165)"/>
<path d="M0 0 C0.33 0 0.66 0 1 0 C1.53122363 1.76774419 2.04964073 3.53934083 2.5625 5.3125 C2.85253906 6.29863281 3.14257812 7.28476563 3.44140625 8.30078125 C4 11 4 11 3 14 C2.34 13.01 1.68 12.02 1 11 C-1.56282742 10.27034634 -1.56282742 10.27034634 -4 10 C-3.34 9.01 -2.68 8.02 -2 7 C-1.34 7 -0.68 7 0 7 C0 4.69 0 2.38 0 0 Z " fill="#E59121" transform="translate(189,66)"/>
<path d="M0 0 C2.56616632 3.84924948 2.55097676 6.4349304 3 11 C0.37812506 9.95125002 -0.79371361 9.35068687 -2.25 6.875 C-2.4975 6.25625 -2.745 5.6375 -3 5 C-2.34 5 -1.68 5 -1 5 C-0.67 3.35 -0.34 1.7 0 0 Z " fill="#E9921F" transform="translate(365,93)"/>
<path d="M0 0 C2.75829701 3.67772934 3.61744829 5.46979314 4.6875 9.75 C4.93886719 10.73484375 5.19023437 11.7196875 5.44921875 12.734375 C5.72185547 13.85585937 5.72185547 13.85585937 6 15 C5.34 15 4.68 15 4 15 C4 13.68 4 12.36 4 11 C3.01 10.67 2.02 10.34 1 10 C0.67 6.7 0.34 3.4 0 0 Z " fill="#E59629" transform="translate(359,77)"/>
<path d="M0 0 C0.33 0.99 0.66 1.98 1 3 C1.99 3.33 2.98 3.66 4 4 C1.09905209 5.45047396 -0.55972596 4.45356803 -3.625 3.5625 C-4.62789062 3.27503906 -5.63078125 2.98757813 -6.6640625 2.69140625 C-7.43492187 2.46324219 -8.20578125 2.23507812 -9 2 C-5.78360346 0.25434889 -3.67986596 -0.204437 0 0 Z " fill="#F8C65C" transform="translate(198,450)"/>
<path d="M0 0 C0.66 0 1.32 0 2 0 C2.0825 0.61875 2.165 1.2375 2.25 1.875 C2.4975 2.57625 2.745 3.2775 3 4 C3.66 4.309375 4.32 4.61875 5 4.9375 C7 6 7 6 7.8125 8.5 C8 11 8 11 7 13 C5.83072457 11.02237345 4.66464427 9.04285742 3.5 7.0625 C2.8503125 5.96035156 2.200625 4.85820312 1.53125 3.72265625 C0 1 0 1 0 0 Z " fill="#E69228" transform="translate(61,343)"/>
<path d="M0 0 C3.98175544 2.10148204 6.35039045 4.36905358 9 8 C5.625 7.6875 5.625 7.6875 2 7 C0 4 0 4 0 0 Z " fill="#EA9329" transform="translate(327,32)"/>
<path d="M0 0 C0.33 1.32 0.66 2.64 1 4 C0.01 4.33 -0.98 4.66 -2 5 C-2 5.66 -2 6.32 -2 7 C-4.375 8.6875 -4.375 8.6875 -7 10 C-7.66 9.67 -8.32 9.34 -9 9 C-6.03 6.03 -3.06 3.06 0 0 Z " fill="#E69328" transform="translate(436,237)"/>
<path d="M0 0 C0.33 0 0.66 0 1 0 C1.5326514 6.258654 -0.18150494 10.45108785 -3 16 C-4.49828872 12.11764181 -3.43110582 9.56550712 -2.0625 5.75 C-1.68222656 4.67234375 -1.30195312 3.5946875 -0.91015625 2.484375 C-0.45962891 1.25460937 -0.45962891 1.25460937 0 0 Z " fill="#FEC23F" transform="translate(111,328)"/>
<path d="M0 0 C0.66 0.33 1.32 0.66 2 1 C1.34 2.32 0.68 3.64 0 5 C-2.97 4.67 -5.94 4.34 -9 4 C-6.00084818 2.50042409 -3.16379181 1.08234983 0 0 Z " fill="#EB921B" transform="translate(414,255)"/>
<path d="M0 0 C0.66 0.33 1.32 0.66 2 1 C0.515 3.475 0.515 3.475 -1 6 C-3.64 5.67 -6.28 5.34 -9 5 C-6.06626269 3.04417512 -3.21783702 1.43775696 0 0 Z " fill="#E69225" transform="translate(269,110)"/>
<path d="M0 0 C3.98381075 2.16264012 6.88983545 4.71211176 10 8 C7.36 7.34 4.72 6.68 2 6 C2 4.68 2 3.36 2 2 C1.34 2 0.68 2 0 2 C0 1.34 0 0.68 0 0 Z " fill="#E59128" transform="translate(314,21)"/>
<path d="M0 0 C0.66 0.33 1.32 0.66 2 1 C1.67 1.99 1.34 2.98 1 4 C2.32 4.33 3.64 4.66 5 5 C3 6 3 6 0.6171875 5.22265625 C-0.28773438 4.83980469 -1.19265625 4.45695312 -2.125 4.0625 C-3.49011719 3.49208984 -3.49011719 3.49208984 -4.8828125 2.91015625 C-5.58148438 2.60980469 -6.28015625 2.30945313 -7 2 C-6.401875 1.855625 -5.80375 1.71125 -5.1875 1.5625 C-3.43849596 1.1127561 -1.71322977 0.57107659 0 0 Z " fill="#F4C75F" transform="translate(172,441)"/>
<path d="M0 0 C1.2065625 0.0309375 1.2065625 0.0309375 2.4375 0.0625 C0.7875 2.0425 -0.8625 4.0225 -2.5625 6.0625 C-3.2225 5.7325 -3.8825 5.4025 -4.5625 5.0625 C-3.43829114 0.08386076 -3.43829114 0.08386076 0 0 Z " fill="#F5C85D" transform="translate(400.5625,402.9375)"/>
<path d="M0 0 C-3.63 2.31 -7.26 4.62 -11 7 C-11 6.01 -11 5.02 -11 4 C-9.35546875 2.578125 -9.35546875 2.578125 -7.1875 1.25 C-6.47980469 0.80140625 -5.77210938 0.3528125 -5.04296875 -0.109375 C-3 -1 -3 -1 0 0 Z " fill="#EC9613" transform="translate(223,314)"/>
<path d="M0 0 C1.94759139 3.89518278 -0.83926401 9.49993247 -2.125 13.5 C-2.558125 14.7375 -2.558125 14.7375 -3 16 C-4.29302919 12.37089807 -3.68677944 9.96054037 -2.625 6.3125 C-2.34914062 5.33925781 -2.07328125 4.36601562 -1.7890625 3.36328125 C-1 1 -1 1 0 0 Z " fill="#EE9A1A" transform="translate(245,272)"/>
<path d="M0 0 C3.63 1.65 7.26 3.3 11 5 C7.06329512 6.31223496 4.87511856 5.24296256 1 4 C0.67 2.68 0.34 1.36 0 0 Z " fill="#E29732" transform="translate(279,0)"/>
<path d="M0 0 C0.33 0.66 0.66 1.32 1 2 C0.26418258 3.1549921 -0.48930039 4.29874185 -1.25 5.4375 C-1.66765625 6.07558594 -2.0853125 6.71367187 -2.515625 7.37109375 C-4.27248877 9.29902057 -5.46089803 9.61479436 -8 10 C-7.04367001 8.70684939 -6.08486149 7.41553147 -5.125 6.125 C-4.59132812 5.40570313 -4.05765625 4.68640625 -3.5078125 3.9453125 C-2 2 -2 2 0 0 Z " fill="#FDC03F" transform="translate(144,278)"/>
<path d="M0 0 C0.33 0 0.66 0 1 0 C1.33 2.97 1.66 5.94 2 9 C0.35 9.66 -1.3 10.32 -3 11 C-2.01 7.37 -1.02 3.74 0 0 Z " fill="#E8942A" transform="translate(164,177)"/>
<path d="M0 0 C3.48749314 2.78999451 6.50157221 5.25235831 9 9 C8.67 9.66 8.34 10.32 8 11 C7.01 10.67 6.02 10.34 5 10 C4.30341637 8.34561387 3.63903117 6.67745682 3 5 C2.01904252 3.98131338 1.02297922 2.97648017 0 2 C0 1.34 0 0.68 0 0 Z " fill="#E7912C" transform="translate(337,42)"/>
<path d="M0 0 C2.475 0.495 2.475 0.495 5 1 C4.01 1.495 4.01 1.495 3 2 C3.165 2.886875 3.33 3.77375 3.5 4.6875 C3.92995757 7.53596892 4.08441035 10.13004802 4 13 C2.42445965 10.11371599 1.53723627 7.46657616 0.875 4.25 C0.70742188 3.45078125 0.53984375 2.6515625 0.3671875 1.828125 C0.24601562 1.22484375 0.12484375 0.6215625 0 0 Z " fill="#E89427" transform="translate(291,28)"/>
<path d="M0 0 C0.66 0.33 1.32 0.66 2 1 C2.33 1.99 2.66 2.98 3 4 C1.1875 5.0625 1.1875 5.0625 -1 6 C-1.99 5.67 -2.98 5.34 -4 5 C-3.34 5 -2.68 5 -2 5 C-2 3.68 -2 2.36 -2 1 C-1.34 0.67 -0.68 0.34 0 0 Z " fill="#F8C753" transform="translate(340,440)"/>
<path d="M0 0 C0.99 0.33 1.98 0.66 3 1 C2.67 2.65 2.34 4.3 2 6 C1.34 6 0.68 6 0 6 C-0.33 6.99 -0.66 7.98 -1 9 C-0.67 6.03 -0.34 3.06 0 0 Z " fill="#E89421" transform="translate(43,190)"/>
<path d="M0 0 C1.32 0.33 2.64 0.66 4 1 C4.33 3.64 4.66 6.28 5 9 C1.7457985 6.16569547 0.4793247 4.31392226 0 0 Z " fill="#ED911D" transform="translate(462,183)"/>
<path d="M0 0 C2.32472205 2.85306797 3.7508258 5.54074837 5 9 C3.68 9 2.36 9 1 9 C0.67 6.03 0.34 3.06 0 0 Z " fill="#E49223" transform="translate(195,84)"/>
<path d="M0 0 C2.79872437 2.52788007 4.45773019 4.20411134 5 8 C4.01 8.33 3.02 8.66 2 9 C1.34 6.03 0.68 3.06 0 0 Z " fill="#EA9022" transform="translate(346,53)"/>
<path d="M0 0 C1.2380014 3.57644848 0.74926071 6.33694766 0 10 C-0.33 10 -0.66 10 -1 10 C-1 8.02 -1 6.04 -1 4 C-2.65 4.66 -4.3 5.32 -6 6 C-4 4 -2 2 0 0 Z " fill="#DB9236" transform="translate(190,26)"/>
<path d="M0 0 C1 2 1 2 0.4375 4.0625 C-1 6 -1 6 -4.125 6.75 C-5.548125 6.87375 -5.548125 6.87375 -7 7 C-4.66666667 4.66666667 -2.33333333 2.33333333 0 0 Z " fill="#E7912A" transform="translate(278,103)"/>
<path d="M0 0 C1 4 1 4 0.0625 6.25 C-0.4634375 7.11625 -0.4634375 7.11625 -1 8 C-1.33 7.34 -1.66 6.68 -2 6 C-3.98 6.99 -3.98 6.99 -6 8 C-4.02 5.36 -2.04 2.72 0 0 Z " fill="#DE963F" transform="translate(89,102)"/>
<path d="M0 0 C0.66 0.66 1.32 1.32 2 2 C0.37660195 3.70884005 -1.29319053 5.37446717 -3 7 C-3.66 7 -4.32 7 -5 7 C-5 6.01 -5 5.02 -5 4 C-4.01 4 -3.02 4 -2 4 C-2 3.01 -2 2.02 -2 1 C-1.34 0.67 -0.68 0.34 0 0 Z " fill="#F6C866" transform="translate(393,409)"/>
<path d="M0 0 C0 0.99 0 1.98 0 3 C-0.66 3 -1.32 3 -2 3 C-1.67 4.65 -1.34 6.3 -1 8 C-5 3.25 -5 3.25 -5 1 C-2 0 -2 0 0 0 Z " fill="#E89223" transform="translate(74,355)"/>
<path d="M0 0 C0.66 0 1.32 0 2 0 C1.01 2.97 0.02 5.94 -1 9 C-3 6 -3 6 -3 3 C-2.34 3 -1.68 3 -1 3 C-0.67 2.01 -0.34 1.02 0 0 Z " fill="#E49427" transform="translate(455,327)"/>
<path d="M0 0 C1.98 1.65 3.96 3.3 6 5 C3.92446352 5.5534764 2.15634036 6 0 6 C0 4.02 0 2.04 0 0 Z " fill="#E49323" transform="translate(96,196)"/>
<path d="M0 0 C0.33 0.66 0.66 1.32 1 2 C1.99 2 2.98 2 4 2 C4.33 3.32 4.66 4.64 5 6 C1.62496331 4.8141763 -0.64722731 3.72426311 -3 1 C-2.01 0.67 -1.02 0.34 0 0 Z " fill="#F3C85B" transform="translate(138,424)"/>
<path d="M0 0 C2 3 2 3 2 6 C-0.46800047 4.84826645 -2.04783565 3.95216435 -4 2 C-2.68 1.34 -1.36 0.68 0 0 Z " fill="#F8CF65" transform="translate(133,419)"/>
<path d="M0 0 C0.33 0.66 0.66 1.32 1 2 C0.22265625 3.9453125 0.22265625 3.9453125 -0.9375 6.125 C-1.31777344 6.84945313 -1.69804687 7.57390625 -2.08984375 8.3203125 C-2.39019531 8.87460937 -2.69054687 9.42890625 -3 10 C-4.1092904 6.67212881 -4.01557588 5.3006216 -3 2 C-2.01 1.34 -1.02 0.68 0 0 Z " fill="#DF932C" transform="translate(452,336)"/>
<path d="M0 0 C0.66 0 1.32 0 2 0 C0.7508258 3.45925163 -0.67527795 6.14693203 -3 9 C-2.25 2.25 -2.25 2.25 0 0 Z " fill="#EC9715" transform="translate(125,298)"/>
<path d="M0 0 C1.32 0.33 2.64 0.66 4 1 C4.33 2.65 4.66 4.3 5 6 C3.2925002 4.71937515 1.62626404 3.38232443 0 2 C0 1.34 0 0.68 0 0 Z " fill="#EA8F23" transform="translate(84,377)"/>
<path d="M0 0 C0.99 0.33 1.98 0.66 3 1 C2.01 2.98 1.02 4.96 0 7 C-0.66 6.67 -1.32 6.34 -2 6 C-2 4.68 -2 3.36 -2 2 C-1.34 2 -0.68 2 0 2 C0 1.34 0 0.68 0 0 Z " fill="#F09714" transform="translate(116,313)"/>
<path d="M0 0 C0.66 0.33 1.32 0.66 2 1 C1.67 4.3 1.34 7.6 1 11 C0.67 11 0.34 11 0 11 C-1.125 3.375 -1.125 3.375 0 0 Z " fill="#E5951B" transform="translate(164,146)"/>
</svg>
